<?xml version="1.0" ?><svg viewBox="0 0 64 64" xmlns="http://www.w3.org/2000/svg"><g data-name="22-search" id="_22-search"><rect height="11.09987" style="fill:#87bbc9" transform="translate(-17.37776 41.95362) rotate(-45)" width="5.81139" x="39.04793" y="36.40369"/><rect height="19.37131" style="fill:#a8d7e4" transform="translate(-21.84016 52.72681) rotate(-45)" width="9.68565" x="47.88398" y="43.04116"/><circle cx="23" cy="23" r="22" style="fill:#a8d7e4"/><circle cx="23" cy="23" r="17" style="fill:#f6f0e5"/><path d="M34.31738,20a.99826.99826,0,0,1-.94238-.667,11.10689,11.10689,0,0,0-6.708-6.708.99949.99949,0,0,1,.666-1.88477A13.11843,13.11843,0,0,1,35.25977,18.667,1.00081,1.00081,0,0,1,34.31738,20Z" style="fill:#ccc7be"/><rect height="2" style="fill:#ccc7be" width="2" x="23" y="10"/></g></svg>